<?xml version="1.0" encoding="UTF-8" standalone="no"?>
<!-- Created with Inkscape (http://www.inkscape.org/) -->

<svg
   width="100mm"
   height="80mm"
   viewBox="0 0 100 80"
   version="1.1"
   id="svg1"
   inkscape:version="1.3.2 (091e20e, 2023-11-25, custom)"
   sodipodi:docname="wilus.svg"
   inkscape:export-filename="wilu2s.png"
   inkscape:export-xdpi="203.2"
   inkscape:export-ydpi="203.2"
   xmlns:inkscape="http://www.inkscape.org/namespaces/inkscape"
   xmlns:sodipodi="http://sodipodi.sourceforge.net/DTD/sodipodi-0.dtd"
   xmlns:xlink="http://www.w3.org/1999/xlink"
   xmlns="http://www.w3.org/2000/svg"
   xmlns:svg="http://www.w3.org/2000/svg">
  <sodipodi:namedview
     id="namedview1"
     pagecolor="#ffffff"
     bordercolor="#000000"
     borderopacity="0.25"
     inkscape:showpageshadow="2"
     inkscape:pageopacity="0.0"
     inkscape:pagecheckerboard="0"
     inkscape:deskcolor="#d1d1d1"
     inkscape:document-units="mm"
     showguides="true"
     inkscape:zoom="2.0485264"
     inkscape:cx="154.5013"
     inkscape:cy="141.3211"
     inkscape:window-width="1920"
     inkscape:window-height="1009"
     inkscape:window-x="-8"
     inkscape:window-y="-8"
     inkscape:window-maximized="1"
     inkscape:current-layer="layer1"
     showgrid="false">
    <sodipodi:guide
       position="-39.522312,39.961056"
       orientation="0,1"
       id="guide1"
       inkscape:locked="false"
       inkscape:label=""
       inkscape:color="rgb(0,134,229)" />
    <sodipodi:guide
       position="49.854942,43.060845"
       orientation="-1,0"
       id="guide2"
       inkscape:locked="false"
       inkscape:label=""
       inkscape:color="rgb(0,134,229)" />
    <sodipodi:guide
       position="25.05663,49.757583"
       orientation="-1,0"
       id="guide4"
       inkscape:locked="false"
       inkscape:label=""
       inkscape:color="rgb(0,134,229)" />
    <sodipodi:guide
       position="75.040729,76.880738"
       orientation="-1,0"
       id="guide5"
       inkscape:locked="false"
       inkscape:label=""
       inkscape:color="rgb(0,134,229)" />
    <inkscape:grid
       id="grid9"
       units="mm"
       originx="0"
       originy="0"
       spacingx="0.99999999"
       spacingy="0.99999999"
       empcolor="#0099e5"
       empopacity="0.30196078"
       color="#0099e5"
       opacity="0.14901961"
       empspacing="5"
       dotted="false"
       gridanglex="30"
       gridanglez="30"
       visible="false" />
  </sodipodi:namedview>
  <defs
     id="defs1">
    <rect
       x="21.478854"
       y="258.72256"
       width="116.18108"
       height="31.24197"
       id="rect11" />
    <linearGradient
       id="linearGradient8"
       inkscape:collect="always">
      <stop
         style="stop-color:#fac546;stop-opacity:1;"
         offset="0.21341464"
         id="stop8" />
      <stop
         style="stop-color:#fac546;stop-opacity:0;"
         offset="1"
         id="stop9" />
    </linearGradient>
    <rect
       x="85.915421"
       y="290.94083"
       width="247.00682"
       height="42.95771"
       id="rect18" />
    <rect
       x="102.51271"
       y="26.360413"
       width="266.53305"
       height="48.815578"
       id="rect17" />
    <rect
       x="38.076153"
       y="288.50006"
       width="326.5762"
       height="53.697136"
       id="rect2" />
    <rect
       x="63.460251"
       y="300.21582"
       width="258.23441"
       height="39.052464"
       id="rect10" />
    <rect
       x="46.374798"
       y="278.24881"
       width="260.18704"
       height="79.081238"
       id="rect9" />
    <rect
       x="112.18294"
       y="167.41145"
       width="171.55359"
       height="42.802105"
       id="rect4" />
    <rect
       x="49.303734"
       y="287.52377"
       width="296.79871"
       height="59.555004"
       id="rect3" />
    <rect
       x="45.56353"
       y="147.7363"
       width="221.60445"
       height="66.964584"
       id="rect1" />
    <rect
       x="73.177788"
       y="20.710695"
       width="405.23926"
       height="130.47739"
       id="rect6" />
    <rect
       x="48.324955"
       y="190.53841"
       width="304.44724"
       height="86.984917"
       id="rect5" />
    <linearGradient
       inkscape:collect="always"
       xlink:href="#linearGradient8"
       id="linearGradient9"
       x1="28.23456"
       y1="51.968159"
       x2="73.285797"
       y2="51.968159"
       gradientUnits="userSpaceOnUse"
       gradientTransform="translate(-0.25831576,-11.365894)" />
  </defs>
  <g
     inkscape:groupmode="layer"
     id="layer2"
     inkscape:label="Layer 2"
     style="display:inline">
    <ellipse
       style="display:inline;opacity:1;fill:#ffffff;fill-opacity:1;stroke:#000000;stroke-width:1.765;stroke-miterlimit:5.2;stroke-dasharray:none;stroke-opacity:1"
       id="path2"
       ry="19.270294"
       rx="45.93819"
       cy="38.586899"
       cx="49.751373" />
    <g
       inkscape:groupmode="layer"
       id="layer4"
       inkscape:label="Layer 3"
       style="display:inline">
      <path
         d="M 73.027481,37.474586 32.26684,72.921569 45.13862,45.815055 27.976244,44.772494 66.591591,8.2829611 53.719807,36.432032 Z"
         fill="#fac546"
         id="path1-6"
         style="display:inline;fill:url(#linearGradient9);stroke-width:0.116839" />
      <path
         d="m 32.26684,73.964125 c -0.214533,0 -0.429063,0 -0.858122,-0.104267 -1.072648,-0.208515 -1.501707,-0.729793 -1.287178,-1.25109 L 42.564265,46.753339 27.761715,45.815036 c -0.643589,0 -1.287178,-0.208511 -1.716239,-0.521276 -0.429058,-0.312771 -0.429058,-0.625538 0,-0.938303 L 64.660823,7.8659371 c 0.429061,-0.4170228 1.716238,-0.7297898 2.574357,-0.5212778 1.072648,0.208511 1.501707,0.7297908 1.287177,1.2510691 L 56.079636,35.597983 73.027481,36.536284 c 0.643591,0 1.28718,0.208513 1.716237,0.521278 0.429061,0.312771 0.21453,0.729789 0,0.938301 L 33.983077,73.442847 c -0.21453,0.312763 -0.858119,0.521278 -1.716237,0.521278 z M 31.194189,43.938446 45.35315,44.772494 c 0.643589,0 1.072648,0.208514 1.501707,0.417025 0.42906,0.208511 0.42906,0.521278 0.42906,0.834049 L 37.84461,66.040685 69.595006,38.308635 53.505281,37.474586 c -0.643592,0 -1.072652,-0.208513 -1.501711,-0.417024 -0.429059,-0.208508 -0.429059,-0.521278 -0.429059,-0.834043 L 60.799289,15.99789 Z"
         fill="#231c1c"
         id="path2-7"
         style="display:inline;stroke-width:0.116839" />
    </g>
    <path
       style="fill:#333e48;stroke-width:0.090009"
       d="m 40.230653,35.437104 h -5.578856 c -1.099912,0 -2.068321,0.724583 -2.378852,1.779757 l -0.233393,0.79307 h 10.803166 l -0.233303,-0.79307 c -0.310441,-1.055174 -1.27885,-1.779757 -2.378762,-1.779757 z"
       id="path1" />
    <path
       style="opacity:0.15;stroke-width:0.090009;enable-background:new"
       d="m 42.609504,37.216957 c -0.03041,-0.10373 -0.06914,-0.203069 -0.111708,-0.299829 H 32.38473 c -0.04267,0.097 -0.08127,0.196309 -0.111709,0.299829 l -0.233393,0.79307 h 10.803166 z"
       id="path2-3" />
    <path
       style="fill:#ffd13f;stroke-width:0.090009"
       d="m 51.758212,35.761676 -3.66625,-1.236632 1.77192,-5.253197 c 0.936183,-2.775621 3.302883,-4.85375 6.176336,-5.423418 l 6.992179,-1.386134 0.752387,3.795239 -6.992179,1.386134 c -1.517824,0.3009 -2.767961,1.398568 -3.262382,2.864715 z"
       id="path3" />
    <path
       style="opacity:0.08;stroke-width:0.090009;enable-background:new"
       d="m 63.032218,22.462116 -2.184342,0.432943 7.14e-4,2.501716 c 9.1e-5,0.476328 0.05969,0.948877 0.172999,1.408362 L 63.7846,26.257341 Z"
       id="path4" />
    <path
       style="fill:#ffd13f;stroke-width:0.090009"
       d="m 65.837172,23.466883 -2.809725,-1.612599 c -0.343024,-0.196943 -0.770657,0.05069 -0.770569,0.446351 l 0.0011,3.648346 c 2.69e-4,0.861652 0.198561,1.711792 0.579479,2.484693 l 4.401805,8.930533 2.535558,-0.922873 -2.440597,-10.940875 c -0.191392,-0.858053 -0.734687,-1.596045 -1.497065,-2.033576 z"
       id="path5" />
    <path
       style="opacity:0.08;stroke-width:0.090009;enable-background:new"
       d="m 69.307116,34.34404 c -0.136011,0.02432 -0.271379,0.05907 -0.404231,0.107441 l -1.832767,0.667156 c -0.274438,0.09987 -0.518633,0.245809 -0.727813,0.425646 l 0.89703,1.819997 2.535558,-0.922871 z"
       id="path6" />
    <path
       style="fill:#ffd13f;stroke-width:0.090009"
       d="M 71.636373,42.268446 64.897658,44.7211 c -0.459136,0.167144 -0.873359,-0.335645 -0.621423,-0.75445 l 1.57462,-2.616488 c 0.432404,-0.718538 0.517012,-1.593956 0.230242,-2.381901 v 0 c -0.443835,-1.219363 0.18488,-2.567606 1.404142,-3.011346 l 1.832768,-0.667157 c 0.941585,-0.342652 1.996852,-0.07144 2.656529,0.682722 l 0.874799,1.000095 c 0.672818,0.769221 0.973449,1.795241 0.821963,2.805943 v 0 c -0.170747,1.140241 -0.951576,2.09559 -2.034925,2.489928 z"
       id="path7" />
    <rect
       x="33.136494"
       y="44.683567"
       style="fill:#c3c6c8;stroke-width:0.090009"
       width="16.127836"
       height="2.8764222"
       id="rect7" />
    <rect
       x="33.136494"
       y="44.683567"
       style="opacity:0.1;stroke-width:0.090009;enable-background:new"
       width="16.127836"
       height="1.4382559"
       id="rect8" />
    <path
       style="fill:#ffd13f;stroke-width:0.090009"
       d="m 56.45327,35.498406 -0.619442,-2.856707 c -0.204952,-0.945278 -1.041316,-1.619632 -2.008465,-1.619632 h -5.762565 c -0.767237,0 -1.38929,0.622051 -1.38929,1.389293 v 5.598571 H 31.074564 c -0.58119,0 -1.052207,0.471025 -1.052207,1.052204 v 4.568594 c 0,0.581194 0.471196,1.052385 1.052207,1.052385 h 24.675735 c 0.68911,0 1.247616,-0.558594 1.247616,-1.247609 V 40.58005 c 0,-1.708646 -0.182538,-3.41207 -0.544645,-5.081644 z"
       id="path8" />
    <path
       style="fill:#333e48;stroke-width:0.090009"
       d="m 56.45336,35.498502 -0.619444,-2.856803 c -0.204949,-0.945278 -1.041224,-1.619632 -2.008462,-1.619632 h -5.762565 c -0.767239,0 -1.389292,0.622051 -1.389292,1.389293 v 5.598571 h -3.830698 v 2.46076 c 0,0.697835 0.565705,1.263546 1.263547,1.263546 h 12.89156 V 40.579776 C 56.997915,38.8715 56.815377,37.16798 56.45336,35.498502 Z"
       id="path9" />
    <path
       style="fill:#57c9e8;stroke-width:0.090009"
       d="m 53.00358,33.288867 h -3.255271 c -0.445005,0 -0.805761,0.360746 -0.805761,0.80575 v 3.109645 c 0,0.445005 0.360665,0.805765 0.805761,0.805765 h 3.396856 c 0.315751,0 0.602431,-0.184523 0.733304,-0.471836 l 0.248064,-0.544829 c 0.12656,-0.27804 0.162377,-0.589012 0.102256,-0.888567 l -0.435285,-2.168762 c -0.07552,-0.376338 -0.406031,-0.647166 -0.78992,-0.647166 z"
       id="path10" />
    <g
       id="g12"
       transform="matrix(0.09000915,0,0,0.09000915,28.339276,15.273987)">
      <path
         style="opacity:0.2;fill:#ffffff;enable-background:new"
         d="m 287.632,231.43 -3.55,-17.685 -38.851,38.851 h 30.361 c 3.508,0 6.693,-2.05 8.147,-5.242 l 2.756,-6.053 c 1.408,-3.089 1.805,-6.542 1.137,-9.871 z"
         id="path11" />
      <path
         style="opacity:0.2;fill:#ffffff;enable-background:new"
         d="m 237.854,200.145 c -4.944,0 -8.952,4.008 -8.952,8.952 v 15.218 l 24.169,-24.169 h -15.217 z"
         id="path12" />
    </g>
    <path
       style="fill:#333e48;stroke-width:0.090009"
       d="M 54.322665,54.848477 H 32.697607 c -2.012874,0 -3.64447,-1.631683 -3.64447,-3.644472 v 0 c 0,-2.012872 1.631687,-3.644554 3.64447,-3.644554 h 21.625058 c 2.012782,0 3.64456,1.631682 3.64456,3.644554 v 0 c -9.2e-5,2.012693 -1.631866,3.644472 -3.64456,3.644472 z"
       id="path13" />
    <rect
       x="32.697605"
       y="49.381771"
       style="opacity:0.2;stroke-width:0.090009;enable-background:new"
       width="21.624607"
       height="3.6445596"
       id="rect13" />
    <g
       id="g14"
       transform="matrix(0.09000915,0,0,0.09000915,28.339276,15.273987)">
      <circle
         style="fill:#f0efef"
         cx="48.421001"
         cy="399.177"
         r="20.24"
         id="circle13" />
      <circle
         style="fill:#f0efef"
         cx="288.67099"
         cy="399.177"
         r="20.24"
         id="circle14" />
    </g>
    <g
       style="opacity:0.1"
       id="g15"
       transform="matrix(0.09000915,0,0,0.09000915,28.339276,15.273987)">
      <path
         d="M 105.704,285.291 H 53.293 c -4.38,0 -7.931,-3.55 -7.931,-7.931 0,-4.381 3.551,-7.931 7.931,-7.931 h 52.411 c 4.38,0 7.931,3.55 7.931,7.931 0,4.38 -3.551,7.931 -7.931,7.931 z"
         id="path14" />
      <path
         d="M 105.704,306.435 H 53.293 c -4.38,0 -7.931,-3.55 -7.931,-7.931 0,-4.381 3.551,-7.931 7.931,-7.931 h 52.411 c 4.38,0 7.931,3.55 7.931,7.931 0,4.38 -3.551,7.931 -7.931,7.931 z"
         id="path15" />
    </g>
    <path
       d="m 49.748309,32.574999 c -0.837895,0 -1.519625,0.681733 -1.519625,1.519618 v 3.109645 c 0,0.837898 0.68173,1.519618 1.519625,1.519618 h 3.396856 c 0.59388,0 1.136634,-0.349234 1.382989,-0.889913 l 0.248066,-0.544733 c 0.190008,-0.417293 0.242755,-0.875432 0.152475,-1.324845 L 54.493411,33.795613 C 54.351468,33.088325 53.724914,32.575096 53.00349,32.575096 Z m 3.34528,1.501538 0.435284,2.16886 c 0.03087,0.153376 0.01292,0.30972 -0.05193,0.452202 l -0.247975,0.544636 c -0.01494,0.03269 -0.0477,0.05385 -0.08371,0.05385 h -3.396855 c -0.05068,0 -0.09181,-0.04122 -0.09181,-0.09177 v -3.109632 c 0,-0.05069 0.04123,-0.09177 0.09181,-0.09177 h 3.25527 c 0.04347,-8.1e-5 0.08137,0.03078 0.08992,0.07364 z M 73.38669,36.502554 72.511981,35.50254 c -0.596491,-0.681994 -1.458328,-1.073088 -2.364452,-1.073088 -0.02988,0 -0.05968,0.0013 -0.08946,0.0014 L 68.031063,25.344414 C 67.79659,24.293459 67.12656,23.383282 66.192626,22.84719 l -2.809725,-1.612517 c -0.38452,-0.220696 -0.843207,-0.220063 -1.227094,0.0028 -0.301351,0.174438 -0.505222,0.457698 -0.57975,0.785596 l -5.674715,1.124923 c -3.123588,0.619263 -5.69623,2.878302 -6.713872,5.895501 l -0.426643,1.264728 h -0.698111 c -1.159678,0 -2.103154,0.943464 -2.103154,2.103147 V 37.29607 H 43.37675 l -0.08262,-0.280732 c -0.397029,-1.349591 -1.656888,-2.29208 -3.06364,-2.29208 h -5.578767 c -1.406843,0 -2.666612,0.942489 -3.06364,2.29208 l -0.08262,0.280732 h -0.430964 c -0.973809,0 -1.766159,0.792177 -1.766159,1.76617 v 4.568592 c 0,0.973801 0.79226,1.766238 1.766159,1.766238 h 1.347707 v 1.458153 c -2.275162,0.142495 -4.082905,2.03808 -4.082905,4.348789 0,2.403156 1.955178,4.358339 4.358332,4.358339 h 21.625049 c 2.403244,0 4.358423,-1.955183 4.358423,-4.358339 0,-2.403238 -1.955179,-4.35842 -4.358423,-4.35842 h -4.344566 v -1.448628 h 5.772196 c 1.08155,0 1.961569,-0.879924 1.961569,-1.961572 v -2.855466 c 0,-1.755906 -0.188659,-3.516566 -0.560936,-5.232782 l -0.619443,-2.856705 c -0.235644,-1.087129 -1.110532,-1.916028 -2.17318,-2.127822 0.484159,-1.034827 1.438255,-1.793962 2.57309,-2.018903 l 4.781736,-0.948067 c 0.109812,0.467878 0.272007,0.923324 0.484069,1.353478 l 3.698026,7.502618 c -0.149685,0.188122 -0.27858,0.394694 -0.38272,0.618096 -0.345815,0.741578 -0.382177,1.573446 -0.102334,2.34239 0.214131,0.588298 0.151844,1.233307 -0.171017,1.769768 l -1.574623,2.616475 c -0.232222,0.385955 -0.239332,0.849136 -0.01881,1.239062 0.219803,0.388746 0.629794,0.630242 1.069939,0.630242 0.144283,0 0.287758,-0.02556 0.426103,-0.07598 l 6.738714,-2.452669 c 1.330335,-0.484159 2.287132,-1.654818 2.496944,-3.054993 0.182808,-1.220172 -0.178309,-2.452848 -0.990731,-3.381641 z M 34.651797,36.150971 h 5.578765 c 0.734565,0 1.396044,0.464995 1.652388,1.145092 h -8.883541 c 0.256346,-0.680097 0.918003,-1.145092 1.652388,-1.145092 z m 19.670868,12.122347 c 1.615931,0 2.930696,1.314763 2.930696,2.930687 0,1.616035 -1.314674,2.930618 -2.930696,2.930618 H 32.697607 c -1.615934,0 -2.930606,-1.31468 -2.930606,-2.930618 0,-1.616021 1.314672,-2.930687 2.930606,-2.930687 z M 33.849994,46.845501 v -1.448617 h 14.700294 v 1.448617 z m 22.434058,-3.410092 c 0,0.294429 -0.239513,0.533755 -0.533753,0.533755 H 31.074564 c -0.186679,0 -0.338345,-0.151839 -0.338345,-0.338435 v -4.568594 c 0,-0.186582 0.151845,-0.338338 0.338345,-0.338338 h 11.054382 v 1.746894 c 0,1.090468 0.887039,1.977413 1.977412,1.977413 H 56.284052 Z M 55.136257,32.792906 55.7557,35.649707 c 0.350675,1.617024 0.528443,3.275704 0.528443,4.930165 v 0.440594 H 44.106358 c -0.303061,0 -0.549688,-0.24662 -0.549688,-0.549693 V 38.72388 h 3.116838 c 0.394239,0 0.713861,-0.319531 0.713861,-0.713853 v -5.598571 c 0,-0.372368 0.302972,-0.675427 0.675429,-0.675427 h 5.762565 c 0.626824,0 1.17804,0.444455 1.310894,1.056877 z m 1.517463,-5.8496 c -1.76796,0.350497 -3.224038,1.628989 -3.800006,3.336825 l -0.0095,0.02803 h -2.576613 l 0.272729,-0.808375 c 0.854727,-2.533933 3.015306,-4.431235 5.638623,-4.951403 l 5.364364,-1.063458 7.14e-4,2.464182 c 0,0.0082 6.48e-4,0.01635 7.14e-4,0.0246 z m 6.824134,1.174794 c -0.330783,-0.671099 -0.505672,-1.421236 -0.505942,-2.169299 l -9.71e-4,-3.303879 2.510894,1.441129 c 0.586949,0.33691 1.008282,0.909187 1.155628,1.569764 l 2.032315,9.110272 -1.428715,0.520071 c -0.06516,0.02363 -0.128894,0.05014 -0.191808,0.0779 z m 9.487593,11.554658 c -0.132218,0.882178 -0.735015,1.619813 -1.57327,1.924849 l -6.219363,2.263642 1.289653,-2.143031 c 0.546176,-0.907567 0.651665,-1.998927 0.289379,-2.994241 -0.149416,-0.410536 -0.130062,-0.854633 0.05454,-1.250591 0.1847,-0.395944 0.512333,-0.696227 0.922955,-0.84573 l 1.832765,-0.667142 c 0.188479,-0.06855 0.385419,-0.103453 0.585239,-0.103453 0.49424,0 0.964359,0.213318 1.289742,0.585427 l 0.874799,1 c 0.535913,0.6126 0.774079,1.425466 0.653556,2.230242 z"
       id="path17"
       style="stroke-width:0.090009" />
    <text
       xml:space="preserve"
       id="text3"
       style="font-style:normal;font-variant:normal;font-weight:normal;font-stretch:normal;font-size:10.6934px;font-family:'Alfa Slab One';-inkscape-font-specification:'Alfa Slab One';letter-spacing:2.38559px;white-space:pre;display:inline;fill:#ffffff;fill-opacity:1;stroke:#000000;stroke-width:0.631148;stroke-miterlimit:5.2;stroke-dasharray:none"
       inkscape:label="text3"
       transform="matrix(1.1090903,0,0,1.1090903,-3.8530578,50.313299)"
       x="23.35507"
       y="0"><textPath
         xlink:href="#path2-6"
         id="textPath5">WI<tspan
   style="text-align:center;letter-spacing:1.43135px;text-anchor:middle;stroke-width:0.631148;stroke-dasharray:none"
   id="tspan5">LUŚ</tspan></textPath></text>
  </g>
  <g
     inkscape:label="Layer 1"
     inkscape:groupmode="layer"
     id="layer1"
     style="display:inline">
    <path
       style="fill:none;fill-opacity:1;stroke:#000000;stroke-width:1.765;stroke-miterlimit:5.2;stroke-dasharray:none;stroke-opacity:1"
       id="path2-0"
       sodipodi:type="arc"
       sodipodi:cx="-49.802628"
       sodipodi:cy="38.586906"
       sodipodi:rx="45.93819"
       sodipodi:ry="19.270294"
       sodipodi:start="0.80435172"
       sodipodi:end="2.3357194"
       sodipodi:arc-type="arc"
       d="m -17.940891,52.468863 a 45.93819,19.270294 0 0 1 -63.673084,0.02032"
       sodipodi:open="true"
       transform="scale(-1,1)" />
    <path
       style="fill:none;fill-opacity:1;stroke:#000000;stroke-width:1.765;stroke-miterlimit:5.2;stroke-dasharray:none;stroke-opacity:1"
       id="path2-9"
       sodipodi:type="arc"
       sodipodi:cx="49.725067"
       sodipodi:cy="38.51828"
       sodipodi:rx="45.93819"
       sodipodi:ry="19.270294"
       sodipodi:start="3.9438856"
       sodipodi:end="5.4678666"
       sodipodi:arc-type="arc"
       d="M 17.795268,24.663869 A 45.93819,19.270294 0 0 1 81.221964,24.490582"
       sodipodi:open="true" />
    <path
       style="display:inline;fill:none;fill-opacity:1;stroke:none;stroke-width:0.865;stroke-miterlimit:5.2;stroke-dasharray:none;stroke-opacity:1"
       id="path2-6"
       sodipodi:type="arc"
       sodipodi:cx="-48.2691"
       sodipodi:cy="-15.295672"
       sodipodi:rx="45.93819"
       sodipodi:ry="19.270294"
       sodipodi:start="0.9999424"
       sodipodi:end="2.1162824"
       sodipodi:arc-type="arc"
       d="M -23.446363,0.91912127 A 45.93819,19.270294 0 0 1 -72.103381,1.1780242"
       sodipodi:open="true"
       transform="scale(-1,1)" />
    <text
       xml:space="preserve"
       id="text1"
       style="font-size:6.35px;font-family:'Alfa Slab One';-inkscape-font-specification:'Alfa Slab One';text-align:center;letter-spacing:0.79375px;text-anchor:middle;white-space:pre;display:inline;fill:#ffffff;fill-opacity:1;stroke:#000000;stroke-width:0.6;stroke-miterlimit:5.2;stroke-dasharray:none;stroke-opacity:1"
       transform="translate(3.9361743e-4,-2.3002076)"><textPath
         xlink:href="#path2-9"
         startOffset="50%"
         id="textPath16"
         style="font-size:6.35px;fill:#ffffff;fill-opacity:1;stroke:#000000;stroke-width:0.6;stroke-dasharray:none;stroke-opacity:1">Elektryczne</textPath></text>
    <text
       xml:space="preserve"
       id="text17"
       style="font-size:6.35px;font-family:'Alfa Slab One';-inkscape-font-specification:'Alfa Slab One';text-align:center;letter-spacing:0.79375px;text-anchor:middle;white-space:pre;display:inline;fill:#ffffff;fill-opacity:1;stroke:#000000;stroke-width:0.6;stroke-miterlimit:5.2;stroke-dasharray:none;stroke-opacity:1"
       transform="translate(1.3695932e-4,-8.1997872)"><textPath
         xlink:href="#path2-9"
         startOffset="50%"
         id="textPath17"><tspan
           id="tspan17"
           style="fill:#ffffff;fill-opacity:1;stroke-width:0.6;stroke-dasharray:none">Usługi</tspan></textPath></text>
    <text
       xml:space="preserve"
       id="text18"
       style="font-size:6.35px;font-family:'Alfa Slab One';-inkscape-font-specification:'Alfa Slab One';text-align:center;letter-spacing:0.79375px;text-anchor:middle;white-space:pre;display:inline;fill:#ffffff;fill-opacity:1;stroke:#000000;stroke-width:0.7;stroke-miterlimit:8.9;stroke-dasharray:none;stroke-opacity:1"
       transform="translate(0,7.2998139)"><textPath
         xlink:href="#path2-0"
         startOffset="50%"
         id="textPath18"><tspan
           id="tspan18"
           style="fill:#ffffff;fill-opacity:1;stroke-width:0.7;stroke-miterlimit:8.9;stroke-dasharray:none">Wypożyczalnia</tspan></textPath></text>
    <text
       xml:space="preserve"
       transform="scale(0.26458333)"
       id="text2"
       style="font-size:24px;font-family:'Alfa Slab One';-inkscape-font-specification:'Alfa Slab One';text-align:center;letter-spacing:3px;white-space:pre;shape-inside:url(#rect11);fill:#ffffff;fill-opacity:1;stroke:#000000;stroke-width:2.26772;stroke-miterlimit:8.9" />
  </g>
</svg>
